<mxfile host="65bd71144e">
    <diagram id="C5RBs43oDa-KdzZeNtuy" name="Page-1">
        <mxGraphModel dx="929" dy="614" grid="1" gridSize="10" guides="1" tooltips="1" connect="1" arrows="1" fold="1" page="1" pageScale="1" pageWidth="827" pageHeight="1169" math="0" shadow="0">
            <root>
                <mxCell id="WIyWlLk6GJQsqaUBKTNV-0"/>
                <mxCell id="WIyWlLk6GJQsqaUBKTNV-1" parent="WIyWlLk6GJQsqaUBKTNV-0"/>
                <mxCell id="7" value="Shelter" style="swimlane;fontStyle=1;align=center;verticalAlign=top;childLayout=stackLayout;horizontal=1;startSize=26;horizontalStack=0;resizeParent=1;resizeParentMax=0;resizeLast=0;collapsible=1;marginBottom=0;" vertex="1" parent="WIyWlLk6GJQsqaUBKTNV-1">
                    <mxGeometry x="480" y="420" width="260" height="180" as="geometry"/>
                </mxCell>
                <mxCell id="8" value="- name: String&#10;- address: String&#10;- capacity: int&#10;- occupants: List" style="text;strokeColor=none;fillColor=none;align=left;verticalAlign=top;spacingLeft=4;spacingRight=4;overflow=hidden;rotatable=0;points=[[0,0.5],[1,0.5]];portConstraint=eastwest;spacing=2;spacingTop=3;" vertex="1" parent="7">
                    <mxGeometry y="26" width="260" height="74" as="geometry"/>
                </mxCell>
                <mxCell id="9" value="" style="line;strokeWidth=1;fillColor=none;align=left;verticalAlign=middle;spacingTop=-1;spacingLeft=3;spacingRight=3;rotatable=0;labelPosition=right;points=[];portConstraint=eastwest;strokeColor=inherit;" vertex="1" parent="7">
                    <mxGeometry y="100" width="260" height="20" as="geometry"/>
                </mxCell>
                <mxCell id="10" value="+ addOccupant(individual: Individual): void&#10;    + removeOccupant(individual: Individual): void&#10;    + checkAvailability(): boolean" style="text;strokeColor=none;fillColor=none;align=left;verticalAlign=top;spacingLeft=4;spacingRight=4;overflow=hidden;rotatable=0;points=[[0,0.5],[1,0.5]];portConstraint=eastwest;" vertex="1" parent="7">
                    <mxGeometry y="120" width="260" height="60" as="geometry"/>
                </mxCell>
                <mxCell id="11" value="Individual" style="swimlane;fontStyle=1;align=center;verticalAlign=top;childLayout=stackLayout;horizontal=1;startSize=26;horizontalStack=0;resizeParent=1;resizeParentMax=0;resizeLast=0;collapsible=1;marginBottom=0;" vertex="1" parent="WIyWlLk6GJQsqaUBKTNV-1">
                    <mxGeometry x="480" y="80" width="320" height="250" as="geometry"/>
                </mxCell>
                <mxCell id="12" value="&#10;- firstName: String&#10;- lastName: String&#10;- dateOfBirth: Date&#10;- gender: String&#10;- languageSpoken: List&#10;- medicalConditions: List&#10;- shelter: Shelter&#10;- familyMembers: List" style="text;strokeColor=none;fillColor=none;align=left;verticalAlign=top;spacingLeft=4;spacingRight=4;overflow=hidden;rotatable=0;points=[[0,0.5],[1,0.5]];portConstraint=eastwest;" vertex="1" parent="11">
                    <mxGeometry y="26" width="320" height="144" as="geometry"/>
                </mxCell>
                <mxCell id="13" value="" style="line;strokeWidth=1;fillColor=none;align=left;verticalAlign=middle;spacingTop=-1;spacingLeft=3;spacingRight=3;rotatable=0;labelPosition=right;points=[];portConstraint=eastwest;strokeColor=inherit;" vertex="1" parent="11">
                    <mxGeometry y="170" width="320" height="8" as="geometry"/>
                </mxCell>
                <mxCell id="14" value="+ addLanguage(language: String): void&#10;    + addMedicalCondition(condition: String): void&#10;    + assignToShelter(shelter: Shelter): void&#10;    + addFamilyMember(member: Individual): void" style="text;strokeColor=none;fillColor=none;align=left;verticalAlign=top;spacingLeft=4;spacingRight=4;overflow=hidden;rotatable=0;points=[[0,0.5],[1,0.5]];portConstraint=eastwest;" vertex="1" parent="11">
                    <mxGeometry y="178" width="320" height="72" as="geometry"/>
                </mxCell>
                <mxCell id="16" value="Medical record" style="swimlane;fontStyle=1;align=center;verticalAlign=top;childLayout=stackLayout;horizontal=1;startSize=26;horizontalStack=0;resizeParent=1;resizeParentMax=0;resizeLast=0;collapsible=1;marginBottom=0;" vertex="1" parent="WIyWlLk6GJQsqaUBKTNV-1">
                    <mxGeometry x="90" y="80" width="250" height="200" as="geometry"/>
                </mxCell>
                <mxCell id="17" value="-Individual:Individual&#10;- injuries: List&#10;- treatmentReceived: String&#10;- assignedDoctor: String" style="text;strokeColor=none;fillColor=none;align=left;verticalAlign=top;spacingLeft=4;spacingRight=4;overflow=hidden;rotatable=0;points=[[0,0.5],[1,0.5]];portConstraint=eastwest;" vertex="1" parent="16">
                    <mxGeometry y="26" width="250" height="84" as="geometry"/>
                </mxCell>
                <mxCell id="18" value="" style="line;strokeWidth=1;fillColor=none;align=left;verticalAlign=middle;spacingTop=-1;spacingLeft=3;spacingRight=3;rotatable=0;labelPosition=right;points=[];portConstraint=eastwest;strokeColor=inherit;" vertex="1" parent="16">
                    <mxGeometry y="110" width="250" height="8" as="geometry"/>
                </mxCell>
                <mxCell id="19" value="+ addInjury(injury: String): void&#10;    + updateTreatment(treatment: String): void&#10;    + assignDoctor(doctor: String): void" style="text;strokeColor=none;fillColor=none;align=left;verticalAlign=top;spacingLeft=4;spacingRight=4;overflow=hidden;rotatable=0;points=[[0,0.5],[1,0.5]];portConstraint=eastwest;" vertex="1" parent="16">
                    <mxGeometry y="118" width="250" height="82" as="geometry"/>
                </mxCell>
                <mxCell id="20" value="ContactLog" style="swimlane;fontStyle=1;align=center;verticalAlign=top;childLayout=stackLayout;horizontal=1;startSize=26;horizontalStack=0;resizeParent=1;resizeParentMax=0;resizeLast=0;collapsible=1;marginBottom=0;" vertex="1" parent="WIyWlLk6GJQsqaUBKTNV-1">
                    <mxGeometry x="90" y="650" width="380" height="180" as="geometry"/>
                </mxCell>
                <mxCell id="21" value="- contactDate: Date&#10;- contactType: String&#10;- contactPerson: Person&#10;- notes: String" style="text;strokeColor=none;fillColor=none;align=left;verticalAlign=top;spacingLeft=4;spacingRight=4;overflow=hidden;rotatable=0;points=[[0,0.5],[1,0.5]];portConstraint=eastwest;" vertex="1" parent="20">
                    <mxGeometry y="26" width="380" height="74" as="geometry"/>
                </mxCell>
                <mxCell id="22" value="" style="line;strokeWidth=1;fillColor=none;align=left;verticalAlign=middle;spacingTop=-1;spacingLeft=3;spacingRight=3;rotatable=0;labelPosition=right;points=[];portConstraint=eastwest;strokeColor=inherit;" vertex="1" parent="20">
                    <mxGeometry y="100" width="380" height="8" as="geometry"/>
                </mxCell>
                <mxCell id="23" value="+ addContactDetails(type: String, person: Person, notes: String): void&#10;    + viewContactsByDate(date: Date): List&#10;    + filterContactsByType(type: String): List" style="text;strokeColor=none;fillColor=none;align=left;verticalAlign=top;spacingLeft=4;spacingRight=4;overflow=hidden;rotatable=0;points=[[0,0.5],[1,0.5]];portConstraint=eastwest;" vertex="1" parent="20">
                    <mxGeometry y="108" width="380" height="72" as="geometry"/>
                </mxCell>
                <mxCell id="24" value="Supply" style="swimlane;fontStyle=1;align=center;verticalAlign=top;childLayout=stackLayout;horizontal=1;startSize=26;horizontalStack=0;resizeParent=1;resizeParentMax=0;resizeLast=0;collapsible=1;marginBottom=0;" vertex="1" parent="WIyWlLk6GJQsqaUBKTNV-1">
                    <mxGeometry x="90" y="410" width="270" height="180" as="geometry"/>
                </mxCell>
                <mxCell id="25" value="Supply&#10;- supplyType: String&#10;- quantity: int&#10;- recipient:Â Individual" style="text;strokeColor=none;fillColor=none;align=left;verticalAlign=top;spacingLeft=4;spacingRight=4;overflow=hidden;rotatable=0;points=[[0,0.5],[1,0.5]];portConstraint=eastwest;" vertex="1" parent="24">
                    <mxGeometry y="26" width="270" height="74" as="geometry"/>
                </mxCell>
                <mxCell id="26" value="" style="line;strokeWidth=1;fillColor=none;align=left;verticalAlign=middle;spacingTop=-1;spacingLeft=3;spacingRight=3;rotatable=0;labelPosition=right;points=[];portConstraint=eastwest;strokeColor=inherit;" vertex="1" parent="24">
                    <mxGeometry y="100" width="270" height="8" as="geometry"/>
                </mxCell>
                <mxCell id="27" value="+ allocateToRecipient(individual: Individual): void&#10;    + adjustQuantity(amount: int): void&#10;    + getSupplyDetails(): String" style="text;strokeColor=none;fillColor=none;align=left;verticalAlign=top;spacingLeft=4;spacingRight=4;overflow=hidden;rotatable=0;points=[[0,0.5],[1,0.5]];portConstraint=eastwest;" vertex="1" parent="24">
                    <mxGeometry y="108" width="270" height="72" as="geometry"/>
                </mxCell>
            </root>
        </mxGraphModel>
    </diagram>
</mxfile>